<mxfile host="app.diagrams.net" agent="Mozilla/5.0 (Windows NT 10.0; Win64; x64) AppleWebKit/537.36 (KHTML, like Gecko) Chrome/132.0.0.0 Safari/537.36" version="26.0.11">
  <diagram name="PÃ¡gina-1" id="wcYc4EPHu3YVMnCLGetm">
    <mxGraphModel dx="954" dy="760" grid="1" gridSize="10" guides="1" tooltips="1" connect="1" arrows="1" fold="1" page="1" pageScale="1" pageWidth="827" pageHeight="1169" math="0" shadow="0">
      <root>
        <mxCell id="0" />
        <mxCell id="1" parent="0" />
        <mxCell id="5N4Ic9oF4p3tcQIWx5UF-15" value="" style="shape=cylinder3;whiteSpace=wrap;html=1;boundedLbl=1;backgroundOutline=1;size=15;fillColor=#dae8fc;strokeColor=#6c8ebf;" vertex="1" parent="1">
          <mxGeometry x="569" y="260" width="44" height="150" as="geometry" />
        </mxCell>
        <mxCell id="5N4Ic9oF4p3tcQIWx5UF-43" style="edgeStyle=orthogonalEdgeStyle;rounded=0;orthogonalLoop=1;jettySize=auto;html=1;exitX=0;exitY=0.75;exitDx=0;exitDy=0;exitPerimeter=0;entryX=0;entryY=0.5;entryDx=0;entryDy=0;entryPerimeter=0;dashed=1;" edge="1" parent="1" source="5N4Ic9oF4p3tcQIWx5UF-1" target="5N4Ic9oF4p3tcQIWx5UF-6">
          <mxGeometry relative="1" as="geometry">
            <mxPoint x="79" y="490" as="targetPoint" />
            <mxPoint x="552.25" y="880" as="sourcePoint" />
            <Array as="points">
              <mxPoint x="552" y="860" />
              <mxPoint x="301" y="860" />
              <mxPoint x="301" y="861" />
              <mxPoint x="79" y="861" />
              <mxPoint x="79" y="502" />
            </Array>
          </mxGeometry>
        </mxCell>
        <mxCell id="5N4Ic9oF4p3tcQIWx5UF-44" value="10 - put - paid order" style="edgeLabel;html=1;align=center;verticalAlign=middle;resizable=0;points=[];" vertex="1" connectable="0" parent="5N4Ic9oF4p3tcQIWx5UF-43">
          <mxGeometry x="-0.5389" relative="1" as="geometry">
            <mxPoint as="offset" />
          </mxGeometry>
        </mxCell>
        <mxCell id="5N4Ic9oF4p3tcQIWx5UF-1" value="Worker" style="outlineConnect=0;dashed=0;verticalLabelPosition=bottom;verticalAlign=top;align=center;html=1;shape=mxgraph.aws3.android;fillColor=#EE472A;gradientColor=none;" vertex="1" parent="1">
          <mxGeometry x="552.25" y="780" width="73.5" height="84" as="geometry" />
        </mxCell>
        <mxCell id="5N4Ic9oF4p3tcQIWx5UF-2" value="Customers" style="outlineConnect=0;dashed=0;verticalLabelPosition=bottom;verticalAlign=top;align=center;html=1;shape=mxgraph.aws3.android;fillColor=#007FFF;gradientColor=none;" vertex="1" parent="1">
          <mxGeometry x="199" y="190" width="73.5" height="84" as="geometry" />
        </mxCell>
        <mxCell id="5N4Ic9oF4p3tcQIWx5UF-3" value="Products" style="outlineConnect=0;dashed=0;verticalLabelPosition=bottom;verticalAlign=top;align=center;html=1;shape=mxgraph.aws3.android;fillColor=#007FFF;gradientColor=none;" vertex="1" parent="1">
          <mxGeometry x="199" y="330" width="73.5" height="84" as="geometry" />
        </mxCell>
        <mxCell id="5N4Ic9oF4p3tcQIWx5UF-4" value="Bills" style="outlineConnect=0;dashed=0;verticalLabelPosition=bottom;verticalAlign=top;align=center;html=1;shape=mxgraph.aws3.android;fillColor=#007FFF;gradientColor=none;" vertex="1" parent="1">
          <mxGeometry x="199" y="570.5" width="73.5" height="84" as="geometry" />
        </mxCell>
        <mxCell id="5N4Ic9oF4p3tcQIWx5UF-5" value="Deliveries" style="outlineConnect=0;dashed=0;verticalLabelPosition=bottom;verticalAlign=top;align=center;html=1;shape=mxgraph.aws3.android;fillColor=#007FFF;gradientColor=none;" vertex="1" parent="1">
          <mxGeometry x="199" y="696" width="73.5" height="84" as="geometry" />
        </mxCell>
        <mxCell id="5N4Ic9oF4p3tcQIWx5UF-28" style="edgeStyle=orthogonalEdgeStyle;rounded=0;orthogonalLoop=1;jettySize=auto;html=1;" edge="1" parent="1">
          <mxGeometry relative="1" as="geometry">
            <mxPoint x="567" y="476" as="targetPoint" />
            <mxPoint x="270.5" y="476" as="sourcePoint" />
          </mxGeometry>
        </mxCell>
        <mxCell id="5N4Ic9oF4p3tcQIWx5UF-31" value="6 republishes" style="edgeLabel;html=1;align=center;verticalAlign=middle;resizable=0;points=[];" vertex="1" connectable="0" parent="5N4Ic9oF4p3tcQIWx5UF-28">
          <mxGeometry x="0.5087" y="-1" relative="1" as="geometry">
            <mxPoint as="offset" />
          </mxGeometry>
        </mxCell>
        <mxCell id="5N4Ic9oF4p3tcQIWx5UF-6" value="Orders" style="outlineConnect=0;dashed=0;verticalLabelPosition=bottom;verticalAlign=top;align=center;html=1;shape=mxgraph.aws3.android;fillColor=#007FFF;gradientColor=none;" vertex="1" parent="1">
          <mxGeometry x="199" y="460" width="73.5" height="84" as="geometry" />
        </mxCell>
        <mxCell id="5N4Ic9oF4p3tcQIWx5UF-17" style="edgeStyle=orthogonalEdgeStyle;rounded=0;orthogonalLoop=1;jettySize=auto;html=1;exitX=0;exitY=0.5;exitDx=0;exitDy=0;exitPerimeter=0;entryX=0.5;entryY=0;entryDx=0;entryDy=0;" edge="1" parent="1" source="5N4Ic9oF4p3tcQIWx5UF-7" target="5N4Ic9oF4p3tcQIWx5UF-16">
          <mxGeometry relative="1" as="geometry" />
        </mxCell>
        <mxCell id="5N4Ic9oF4p3tcQIWx5UF-46" value="3 publishes" style="edgeLabel;html=1;align=center;verticalAlign=middle;resizable=0;points=[];" vertex="1" connectable="0" parent="5N4Ic9oF4p3tcQIWx5UF-17">
          <mxGeometry x="-0.14" y="-1" relative="1" as="geometry">
            <mxPoint as="offset" />
          </mxGeometry>
        </mxCell>
        <mxCell id="5N4Ic9oF4p3tcQIWx5UF-7" value="Order-Receiver" style="outlineConnect=0;dashed=0;verticalLabelPosition=bottom;verticalAlign=top;align=center;html=1;shape=mxgraph.aws3.android;fillColor=#CCCC00;gradientColor=none;" vertex="1" parent="1">
          <mxGeometry x="654.25" y="166" width="73.5" height="84" as="geometry" />
        </mxCell>
        <mxCell id="5N4Ic9oF4p3tcQIWx5UF-8" value="" style="points=[];aspect=fixed;html=1;align=center;shadow=0;dashed=0;fillColor=#FF6A00;strokeColor=none;shape=mxgraph.alibaba_cloud.enterprise_website;" vertex="1" parent="1">
          <mxGeometry x="419" y="120" width="79.78" height="62.2" as="geometry" />
        </mxCell>
        <mxCell id="5N4Ic9oF4p3tcQIWx5UF-9" style="edgeStyle=orthogonalEdgeStyle;rounded=0;orthogonalLoop=1;jettySize=auto;html=1;entryX=0;entryY=0.5;entryDx=0;entryDy=0;entryPerimeter=0;dashed=1;" edge="1" parent="1" source="5N4Ic9oF4p3tcQIWx5UF-8" target="5N4Ic9oF4p3tcQIWx5UF-3">
          <mxGeometry relative="1" as="geometry">
            <Array as="points">
              <mxPoint x="159" y="145" />
              <mxPoint x="159" y="372" />
            </Array>
          </mxGeometry>
        </mxCell>
        <mxCell id="5N4Ic9oF4p3tcQIWx5UF-10" value="" style="endArrow=classic;html=1;rounded=0;" edge="1" parent="1">
          <mxGeometry width="50" height="50" relative="1" as="geometry">
            <mxPoint x="149" y="220" as="sourcePoint" />
            <mxPoint x="199" y="220" as="targetPoint" />
          </mxGeometry>
        </mxCell>
        <mxCell id="5N4Ic9oF4p3tcQIWx5UF-11" value="1 get products and customer info" style="edgeLabel;html=1;align=center;verticalAlign=middle;resizable=0;points=[];" vertex="1" connectable="0" parent="5N4Ic9oF4p3tcQIWx5UF-10">
          <mxGeometry x="-0.36" y="2" relative="1" as="geometry">
            <mxPoint x="104" y="-78" as="offset" />
          </mxGeometry>
        </mxCell>
        <mxCell id="5N4Ic9oF4p3tcQIWx5UF-13" style="edgeStyle=orthogonalEdgeStyle;rounded=0;orthogonalLoop=1;jettySize=auto;html=1;entryX=1;entryY=0.5;entryDx=0;entryDy=0;entryPerimeter=0;" edge="1" parent="1" source="5N4Ic9oF4p3tcQIWx5UF-8" target="5N4Ic9oF4p3tcQIWx5UF-7">
          <mxGeometry relative="1" as="geometry">
            <Array as="points">
              <mxPoint x="749" y="140" />
              <mxPoint x="749" y="208" />
            </Array>
          </mxGeometry>
        </mxCell>
        <mxCell id="5N4Ic9oF4p3tcQIWx5UF-14" value="2 post summary infos" style="edgeLabel;html=1;align=center;verticalAlign=middle;resizable=0;points=[];" vertex="1" connectable="0" parent="5N4Ic9oF4p3tcQIWx5UF-13">
          <mxGeometry x="0.3817" y="-1" relative="1" as="geometry">
            <mxPoint x="-130" as="offset" />
          </mxGeometry>
        </mxCell>
        <mxCell id="5N4Ic9oF4p3tcQIWx5UF-16" value="" style="shape=message;html=1;html=1;outlineConnect=0;labelPosition=center;verticalLabelPosition=bottom;align=center;verticalAlign=top;" vertex="1" parent="1">
          <mxGeometry x="576" y="230" width="30" height="20" as="geometry" />
        </mxCell>
        <mxCell id="5N4Ic9oF4p3tcQIWx5UF-49" style="edgeStyle=orthogonalEdgeStyle;rounded=0;orthogonalLoop=1;jettySize=auto;html=1;" edge="1" parent="1" source="5N4Ic9oF4p3tcQIWx5UF-18" target="5N4Ic9oF4p3tcQIWx5UF-6">
          <mxGeometry relative="1" as="geometry">
            <Array as="points">
              <mxPoint x="509" y="372" />
              <mxPoint x="509" y="440" />
              <mxPoint x="236" y="440" />
            </Array>
          </mxGeometry>
        </mxCell>
        <mxCell id="5N4Ic9oF4p3tcQIWx5UF-50" value="4 consumes" style="edgeLabel;html=1;align=center;verticalAlign=middle;resizable=0;points=[];" vertex="1" connectable="0" parent="5N4Ic9oF4p3tcQIWx5UF-49">
          <mxGeometry x="0.1014" y="-1" relative="1" as="geometry">
            <mxPoint as="offset" />
          </mxGeometry>
        </mxCell>
        <mxCell id="5N4Ic9oF4p3tcQIWx5UF-18" value="" style="shape=message;html=1;html=1;outlineConnect=0;labelPosition=center;verticalLabelPosition=bottom;align=center;verticalAlign=top;" vertex="1" parent="1">
          <mxGeometry x="576" y="362" width="30" height="20" as="geometry" />
        </mxCell>
        <mxCell id="5N4Ic9oF4p3tcQIWx5UF-20" style="edgeStyle=orthogonalEdgeStyle;rounded=0;orthogonalLoop=1;jettySize=auto;html=1;entryX=0;entryY=0.5;entryDx=0;entryDy=0;entryPerimeter=0;" edge="1" parent="1" target="5N4Ic9oF4p3tcQIWx5UF-5">
          <mxGeometry relative="1" as="geometry">
            <mxPoint x="199" y="490" as="sourcePoint" />
            <Array as="points">
              <mxPoint x="199" y="490" />
              <mxPoint x="109" y="490" />
              <mxPoint x="109" y="738" />
            </Array>
          </mxGeometry>
        </mxCell>
        <mxCell id="5N4Ic9oF4p3tcQIWx5UF-47" value="5 pupulate&lt;div&gt;order&lt;/div&gt;&lt;div&gt;details&lt;/div&gt;&lt;div&gt;on all apis&lt;/div&gt;" style="edgeLabel;html=1;align=center;verticalAlign=middle;resizable=0;points=[];" vertex="1" connectable="0" parent="5N4Ic9oF4p3tcQIWx5UF-20">
          <mxGeometry x="-0.7383" y="2" relative="1" as="geometry">
            <mxPoint x="6" y="-32" as="offset" />
          </mxGeometry>
        </mxCell>
        <mxCell id="5N4Ic9oF4p3tcQIWx5UF-21" value="" style="endArrow=classic;html=1;rounded=0;" edge="1" parent="1">
          <mxGeometry width="50" height="50" relative="1" as="geometry">
            <mxPoint x="109" y="610" as="sourcePoint" />
            <mxPoint x="189" y="610" as="targetPoint" />
          </mxGeometry>
        </mxCell>
        <mxCell id="5N4Ic9oF4p3tcQIWx5UF-23" value="" style="endArrow=none;html=1;rounded=0;" edge="1" parent="1">
          <mxGeometry width="50" height="50" relative="1" as="geometry">
            <mxPoint x="109" y="510" as="sourcePoint" />
            <mxPoint x="109" y="220" as="targetPoint" />
          </mxGeometry>
        </mxCell>
        <mxCell id="5N4Ic9oF4p3tcQIWx5UF-25" value="" style="endArrow=none;html=1;rounded=0;" edge="1" parent="1">
          <mxGeometry width="50" height="50" relative="1" as="geometry">
            <mxPoint x="109" y="220" as="sourcePoint" />
            <mxPoint x="159" y="220" as="targetPoint" />
          </mxGeometry>
        </mxCell>
        <mxCell id="5N4Ic9oF4p3tcQIWx5UF-27" value="" style="shape=cylinder3;whiteSpace=wrap;html=1;boundedLbl=1;backgroundOutline=1;size=15;fillColor=#d5e8d4;strokeColor=#82b366;" vertex="1" parent="1">
          <mxGeometry x="567" y="510" width="44" height="140" as="geometry" />
        </mxCell>
        <mxCell id="5N4Ic9oF4p3tcQIWx5UF-30" value="" style="shape=message;html=1;html=1;outlineConnect=0;labelPosition=center;verticalLabelPosition=bottom;align=center;verticalAlign=top;" vertex="1" parent="1">
          <mxGeometry x="574" y="470" width="30" height="20" as="geometry" />
        </mxCell>
        <mxCell id="5N4Ic9oF4p3tcQIWx5UF-37" style="edgeStyle=orthogonalEdgeStyle;rounded=0;orthogonalLoop=1;jettySize=auto;html=1;" edge="1" parent="1" source="5N4Ic9oF4p3tcQIWx5UF-33">
          <mxGeometry relative="1" as="geometry">
            <mxPoint x="589" y="776" as="targetPoint" />
          </mxGeometry>
        </mxCell>
        <mxCell id="5N4Ic9oF4p3tcQIWx5UF-48" value="7 consumes" style="edgeLabel;html=1;align=center;verticalAlign=middle;resizable=0;points=[];" vertex="1" connectable="0" parent="5N4Ic9oF4p3tcQIWx5UF-37">
          <mxGeometry x="-0.1021" y="2" relative="1" as="geometry">
            <mxPoint as="offset" />
          </mxGeometry>
        </mxCell>
        <mxCell id="5N4Ic9oF4p3tcQIWx5UF-33" value="" style="shape=message;html=1;html=1;outlineConnect=0;labelPosition=center;verticalLabelPosition=bottom;align=center;verticalAlign=top;" vertex="1" parent="1">
          <mxGeometry x="574" y="610" width="30" height="23" as="geometry" />
        </mxCell>
        <mxCell id="5N4Ic9oF4p3tcQIWx5UF-38" style="edgeStyle=orthogonalEdgeStyle;rounded=0;orthogonalLoop=1;jettySize=auto;html=1;entryX=1;entryY=0.5;entryDx=0;entryDy=0;entryPerimeter=0;" edge="1" parent="1" source="5N4Ic9oF4p3tcQIWx5UF-1" target="5N4Ic9oF4p3tcQIWx5UF-4">
          <mxGeometry relative="1" as="geometry" />
        </mxCell>
        <mxCell id="5N4Ic9oF4p3tcQIWx5UF-39" value="8 - get paid bills" style="edgeLabel;html=1;align=center;verticalAlign=middle;resizable=0;points=[];" vertex="1" connectable="0" parent="5N4Ic9oF4p3tcQIWx5UF-38">
          <mxGeometry x="-0.2527" y="-1" relative="1" as="geometry">
            <mxPoint as="offset" />
          </mxGeometry>
        </mxCell>
        <mxCell id="5N4Ic9oF4p3tcQIWx5UF-40" style="edgeStyle=orthogonalEdgeStyle;rounded=0;orthogonalLoop=1;jettySize=auto;html=1;entryX=1;entryY=0.5;entryDx=0;entryDy=0;entryPerimeter=0;" edge="1" parent="1" source="5N4Ic9oF4p3tcQIWx5UF-1" target="5N4Ic9oF4p3tcQIWx5UF-5">
          <mxGeometry relative="1" as="geometry">
            <Array as="points">
              <mxPoint x="299" y="830" />
              <mxPoint x="299" y="738" />
            </Array>
          </mxGeometry>
        </mxCell>
        <mxCell id="5N4Ic9oF4p3tcQIWx5UF-41" value="9 - put - ready to deliver" style="edgeLabel;html=1;align=center;verticalAlign=middle;resizable=0;points=[];" vertex="1" connectable="0" parent="5N4Ic9oF4p3tcQIWx5UF-40">
          <mxGeometry x="0.1395" y="1" relative="1" as="geometry">
            <mxPoint x="39" as="offset" />
          </mxGeometry>
        </mxCell>
        <mxCell id="5N4Ic9oF4p3tcQIWx5UF-51" value="dlq" style="shape=cylinder3;whiteSpace=wrap;html=1;boundedLbl=1;backgroundOutline=1;size=15;fillColor=#d5e8d4;strokeColor=#82b366;" vertex="1" parent="1">
          <mxGeometry x="669" y="655" width="44" height="112" as="geometry" />
        </mxCell>
        <mxCell id="5N4Ic9oF4p3tcQIWx5UF-52" style="edgeStyle=orthogonalEdgeStyle;rounded=0;orthogonalLoop=1;jettySize=auto;html=1;entryX=0.5;entryY=0;entryDx=0;entryDy=0;entryPerimeter=0;" edge="1" parent="1" source="5N4Ic9oF4p3tcQIWx5UF-27" target="5N4Ic9oF4p3tcQIWx5UF-51">
          <mxGeometry relative="1" as="geometry" />
        </mxCell>
        <mxCell id="5N4Ic9oF4p3tcQIWx5UF-53" value="dlq" style="shape=cylinder3;whiteSpace=wrap;html=1;boundedLbl=1;backgroundOutline=1;size=15;fillColor=#dae8fc;strokeColor=#6c8ebf;" vertex="1" parent="1">
          <mxGeometry x="669" y="382" width="44" height="110" as="geometry" />
        </mxCell>
        <mxCell id="5N4Ic9oF4p3tcQIWx5UF-54" style="edgeStyle=orthogonalEdgeStyle;rounded=0;orthogonalLoop=1;jettySize=auto;html=1;entryX=0.5;entryY=0;entryDx=0;entryDy=0;entryPerimeter=0;" edge="1" parent="1" source="5N4Ic9oF4p3tcQIWx5UF-15" target="5N4Ic9oF4p3tcQIWx5UF-53">
          <mxGeometry relative="1" as="geometry" />
        </mxCell>
        <mxCell id="5N4Ic9oF4p3tcQIWx5UF-26" value="" style="endArrow=none;html=1;rounded=0;" edge="1" parent="1">
          <mxGeometry width="50" height="50" relative="1" as="geometry">
            <mxPoint x="109" y="372" as="sourcePoint" />
            <mxPoint x="189" y="371.5" as="targetPoint" />
          </mxGeometry>
        </mxCell>
        <mxCell id="5N4Ic9oF4p3tcQIWx5UF-58" value="" style="endArrow=classic;html=1;rounded=0;" edge="1" parent="1">
          <mxGeometry width="50" height="50" relative="1" as="geometry">
            <mxPoint x="199" y="490" as="sourcePoint" />
            <mxPoint x="179" y="490" as="targetPoint" />
          </mxGeometry>
        </mxCell>
        <mxCell id="5N4Ic9oF4p3tcQIWx5UF-59" value="" style="endArrow=classic;html=1;rounded=0;" edge="1" parent="1">
          <mxGeometry width="50" height="50" relative="1" as="geometry">
            <mxPoint x="160" y="172.2" as="sourcePoint" />
            <mxPoint x="160" y="182.2" as="targetPoint" />
          </mxGeometry>
        </mxCell>
        <mxCell id="5N4Ic9oF4p3tcQIWx5UF-60" value="load products csv" style="outlineConnect=0;dashed=0;verticalLabelPosition=bottom;verticalAlign=top;align=center;html=1;shape=mxgraph.aws3.android;fillColor=#009900;gradientColor=none;" vertex="1" parent="1">
          <mxGeometry x="414" y="274" width="43.5" height="48" as="geometry" />
        </mxCell>
        <mxCell id="5N4Ic9oF4p3tcQIWx5UF-61" value="" style="sketch=0;pointerEvents=1;shadow=0;dashed=0;html=1;strokeColor=none;fillColor=#505050;labelPosition=center;verticalLabelPosition=bottom;verticalAlign=top;outlineConnect=0;align=center;shape=mxgraph.office.users.csv_file;" vertex="1" parent="1">
          <mxGeometry x="371" y="298" width="43" height="32" as="geometry" />
        </mxCell>
        <mxCell id="5N4Ic9oF4p3tcQIWx5UF-62" style="edgeStyle=orthogonalEdgeStyle;rounded=0;orthogonalLoop=1;jettySize=auto;html=1;entryX=1;entryY=0.5;entryDx=0;entryDy=0;entryPerimeter=0;" edge="1" parent="1" source="5N4Ic9oF4p3tcQIWx5UF-61" target="5N4Ic9oF4p3tcQIWx5UF-3">
          <mxGeometry relative="1" as="geometry">
            <Array as="points">
              <mxPoint x="350" y="314" />
              <mxPoint x="350" y="372" />
            </Array>
          </mxGeometry>
        </mxCell>
      </root>
    </mxGraphModel>
  </diagram>
</mxfile>
